# AST/ASF file generated using VICON BodyLanguage
# -----------------------------------------------
:version 1.10
:name VICON
:units
  mass 1.0
  length 0.45
  angle deg
:documentation
   .ast/.asf automatically generated from VICON data using
   VICON BodyBuilder and BodyLanguage model FoxedUp or BRILLIANT.MOD
:root
   order TX TY TZ RX RY RZ
   axis XYZ
   position 0 0 0  
   orientation 0 0 0 
:bonedata
  begin
     id 1 
     name lhipjoint
     direction 0.661853 -0.702389 0.261917 
     length 2.64193 
     axis 0 0 0  XYZ
  end
  begin
     id 2 
     name lfemur
     direction 0.34202 -0.939693 0  
     length 7.01722  
     axis 0 0 20  XYZ
    dof rx ry rz
    limits (-160.0 20.0)
           (-70.0 70.0)
           (-60.0 70.0)
  end
  begin
     id 3 
     name ltibia
     direction 0.34202 -0.939693 0   
     length 8.25008   
     axis 0 0 20   XYZ
    dof rx
    limits (-10.0 170.0)
  end
  begin
     id 4 
     name lfoot
     direction 0.0709916 -0.195048 0.978221   
     length 2.31941   
     axis -90 7.62852e-016 20   XYZ
    dof rx rz
    limits (-45.0 90.0)
           (-70.0 20.0)
  end
  begin
     id 5 
     name ltoes
     direction 1.53586e-011 -4.22017e-011 1   
     length 1.16486   
     axis -90 7.62852e-016 20   XYZ
    dof rx
    limits (-90.0 20.0)
  end
  begin
     id 6 
     name rhipjoint
     direction -0.638185 -0.721362 0.268992   
     length 2.57244  
     axis 0 0 0  XYZ 
  end
  begin
     id 7 
     name rfemur
     direction -0.34202 -0.939693 0   
     length 7.07017   
     axis 0 0 -20   XYZ
    dof rx ry rz
    limits (-160.0 20.0)
           (-70.0 70.0)
           (-70.0 60.0)
  end
  begin
     id 8 
     name rtibia
     direction -0.34202 -0.939693 0   
     length 8.20386   
     axis 0 0 -20   XYZ
    dof rx
    limits (-10.0 170.0)
 end
 begin
     id 9 
     name rfoot
     direction -0.0822429 -0.225961 0.970658   
     length 2.32215  
     axis -90 -7.62852e-016 -20   XYZ
    dof rx rz
    limits (-45.0 90.0)
           (-20.0 70.0)
  end
  begin
     id 10 
     name rtoes
     direction -1.53597e-011 -4.21689e-011 1   
     length 1.16333   
     axis -90 -7.62852e-016 -20   XYZ
    dof rx
    limits (-90.0 20.0)
  end
  begin
     id 11 
     name lowerback
     direction -0.0131557 0.998589 -0.0514484   
     length 2.14993   
     axis 0 0 0   XYZ
    dof rx ry rz
    limits (-20.0 45.0)
           (-30.0 30.0)
           (-30.0 30.0)
  end
  begin
     id 12 
     name upperback
     direction -0.000776481 0.999993 0.00352685   
     length 2.15301   
     axis 0 0 0   XYZ
    dof rx ry rz
    limits (-20.0 45.0)
           (-30.0 30.0)
           (-30.0 30.0)
  end
  begin
     id 13 
     name thorax
     direction 0.00438186 0.999609 0.0276143   
     length 2.15424   
     axis 0 0 0   XYZ
    dof rx ry rz
    limits (-20.0 45.0)
           (-30.0 30.0)
           (-30.0 30.0)
  end
  begin
     id 14 
     name lowerneck
     direction -0.0488006 0.998094 0.0377807   
     length 1.90481   
     axis 0 0 0   XYZ
    dof rx ry rz
    limits (-20.0 45.0)
           (-30.0 30.0)
           (-30.0 30.0)
  end
  begin
     id 15 
     name upperneck
     direction 0.0443769 0.990702 -0.12861   
     length 1.91305   
     axis 0 0 0   XYZ
    dof rx ry rz
    limits (-20.0 45.0)
           (-30.0 30.0)
           (-30.0 30.0)
  end
  begin
     id 16
     name head
     direction 0.0165599 0.998647 -0.0492982  
     length 1.92369  
     axis 0 0 0   XYZ
    dof rx ry rz
    limits (-20.0 45.0)
           (-30.0 30.0)
           (-30.0 30.0)
  end
  begin
     id 17 
     name lclavicle
     direction 0.911936 0.410197 -0.0105506  
     length 3.52622  
     axis 0 0 0   XYZ
    dof ry rz
    limits (-20.0 10.0)
           (0.0 20.0)
  end
  begin
     id 18 
     name lhumerus
     direction 1 -4.48974e-011 -2.48591e-028   
     length 5.47651   
     axis 180 -30 -90   XYZ
    dof rx ry rz
    limits (-60.0 90.0)
           (-90.0 90.0)
           (-90.0 90.0)
  end
  begin
     id 19
     name lradius
     direction 1 -4.48938e-011 -4.40099e-027   
     length 3.09058   
     axis 180 -30 -90   XYZ
    dof rx
    limits (-10.0 170.0)
  end
  begin
     id 20
     name lwrist
     direction 1 -4.49042e-011 -2.99852e-027   
     length 1.54529   
     axis 1.95339e-015 90 90   XYZ
    dof ry
    limits (-180.0 0.0)
 end
  begin
     id 21 
     name lhand
     direction 1 -4.48815e-011 -5.98193e-027   
     length 0.771611   
     axis 3.82337e-015 90 90   XYZ
    dof rx rz
    limits (-90.0 90.0)
           (-45.0 45.0)
  end
  begin
     id 22 
     name lfingers
     direction 1 -4.49034e-011 -1.1993e-026   
     length 0.622093   
     axis 7.64668e-015 90 90   XYZ
    dof rx
    limits (0.0 90.0)
  end
  begin
     id 23
     name lthumb
     direction 0.707107 -6.34867e-011 0.707107   
     length 0.893204   
     axis -90 45 -1.62303e-014   XYZ
    dof rx rz
    limits (-45.0 45.0)
           (-45.0 45.0)
  end
  begin
     id 24 
     name rclavicle
     direction -0.93442 0.355634 -0.0195692   
     length 3.62463  
     axis 0 0 0   XYZ 
    dof ry rz
    limits (-10.0 20.0)
           (-20.0 0.0)
  end
  begin
     id 25 
     name rhumerus
     direction -1 -4.48957e-011 -1.19147e-027  
     length 5.14182   
     axis 180 30 90   XYZ
    dof rx ry rz
    limits (-90.0 60.0)
           (-90.0 90.0)
           (-90.0 90.0)
  end
  begin
     id 26 
     name rradius
     direction -1 -4.48952e-011 -3.81062e-027   
     length 3.35565   
     axis 180 30 90   XYZ
    dof rx
    limits (-10.0 170.0)
  end
  begin
     id 27 
     name rwrist
     direction -1 -4.48973e-011 -2.99621e-027   
     length 1.67782   
     axis 1.95339e-015 -90 -90   XYZ
    dof ry
    limits (-180.0 0.0)
  end
  begin
     id 28
     name rhand
     direction -1 -4.48895e-011 -5.98727e-027   
     length 0.801042   
     axis 3.82337e-015 -90 -90   XYZ
    dof rx rz
    limits (-90.0 90.0)
           (-45.0 45.0)
  end
  begin
     id 29
     name rfingers
     direction -1 -4.49065e-011 -1.19972e-026   
     length 0.645821   
     axis 7.64668e-015 -90 -90   XYZ
    dof rx
    limits (0.0 90.0)
  end
  begin
     id 30
     name rthumb
     direction -0.707107 -6.34957e-011 0.707107   
     length 0.927273   
     axis -90 -45 1.62303e-014   XYZ
    dof rx rz
    limits (-45.0 45.0)
           (-45.0 45.0)
  end
:hierarchy
  begin
    root lhipjoint rhipjoint lowerback
    lhipjoint lfemur
    lfemur ltibia
    ltibia lfoot
    lfoot ltoes
    rhipjoint rfemur
    rfemur rtibia
    rtibia rfoot
    rfoot rtoes
    lowerback upperback
    upperback thorax
    thorax lowerneck lclavicle rclavicle
    lowerneck upperneck
    upperneck head
    lclavicle lhumerus
    lhumerus lradius
    lradius lwrist
    lwrist lhand lthumb
    lhand lfingers
    rclavicle rhumerus
    rhumerus rradius
    rradius rwrist
    rwrist rhand rthumb
    rhand rfingers
  end

#!OML:ASF E:\Style4\Style4.ASF
:FULLY-SPECIFIED
:DEGREES
335
root -1.09943 17.7544 -1.98913 3.24143 -2.08416 -1.79197
lowerback 13.463 1.25798 -1.61645
upperback 12.0971 1.59106 -3.16454
thorax 5.35282 0.824102 -2.56859
lowerneck 3.41021 -0.384872 -4.16225
upperneck -5.52042 -0.0437069 12.1201
head -2.17805 -0.289959 4.34282
rclavicle -3.97569e-015 0
rhumerus 58.396 9.31513 -1.93191
rradius 83.2576
rwrist -78.3365
rhand -5.37464 -6.3275
rfingers 7.12502
rthumb 20.4334 -35.2724
lclavicle -3.97569e-015 0
lhumerus 39.0815 -30.9921 74.2459
lradius 99.5233
lwrist 85.6851
lhand -37.8683 36.5539
lfingers 7.12502
lthumb -10.9123 66.2504
rfemur -20.9448 -2.11625 25.604
rtibia 31.4926
rfoot -13.4995 -15.1965
rtoes -6.52232
lfemur -21.6079 1.10534 -11.7391
ltibia 33.4503
lfoot -14.0516 12.6872
ltoes -20.9079
336
root -1.12181 17.7513 -1.9884 3.23713 -1.40271 -1.83223
lowerback 13.5064 1.25156 -1.40933
upperback 12.0845 1.60041 -3.02361
thorax 5.31537 0.839375 -2.53684
lowerneck 3.48772 -0.6138 -4.24324
upperneck -5.56716 -0.354677 12.1353
head -2.17805 -0.447121 4.37028
rclavicle -1.59028e-015 2.62396e-014
rhumerus 58.5711 9.46115 -1.43901
rradius 83.3425
rwrist -78.7191
rhand -4.96628 -6.39696
rfingers 7.12502
rthumb 20.8258 -35.2993
lclavicle -1.59028e-015 2.62396e-014
lhumerus 38.403 -31.0249 74.2528
lradius 99.8845
lwrist 86.013
lhand -38.1904 36.484
lfingers 7.12502
lthumb -11.2229 66.1638
rfemur -20.95 -2.42438 25.7195
rtibia 31.5711
rfoot -13.6241 -15.5093
rtoes -6.26313
lfemur -21.7695 0.619167 -11.6174
ltibia 33.4289
lfoot -13.9374 12.5534
ltoes -20.9098
337
root -1.14403 17.7496 -1.98635 3.24685 -0.760289 -1.82911
lowerback 13.5435 1.16077 -1.4311
upperback 11.9273 1.47278 -2.84959
thorax 5.10877 0.766882 -2.32971
lowerneck 4.12232 -0.676287 -4.51316
upperneck -5.78257 -0.44342 12.1721
head -2.33902 -0.512216 4.43648
rclavicle -8.74653e-015 -1.59028e-014
rhumerus 59.193 9.90788 -1.06754
rradius 83.3699
rwrist -79.1083
rhand -4.46954 -6.43139
rfingers 7.12502
rthumb 21.303 -35.2805
lclavicle -8.74653e-015 -1.59028e-014
lhumerus 37.0507 -30.8577 74.4503
lradius 100.445
lwrist 86.2523
lhand -38.5183 36.128
lfingers 7.12502
lthumb -11.5392 65.7904
rfemur -20.972 -2.68985 25.7831
rtibia 31.6501
rfoot -13.7386 -15.7999
rtoes -6.19654
lfemur -21.934 0.153553 -11.5399
ltibia 33.3912
lfoot -13.8652 12.4074
ltoes -20.6617
338
root -1.16509 17.7482 -1.98163 3.27462 -0.128151 -1.80655
lowerback 13.5568 1.14304 -1.39319
upperback 11.764 1.44728 -2.65936
thorax 4.91394 0.74955 -2.14766
lowerneck 4.76376 -0.799828 -4.78238
upperneck -5.97716 -0.618284 12.2507
head -2.4871 -0.620742 4.5192
rclavicle -7.15625e-015 -3.18055e-015
rhumerus 59.6712 10.3395 -0.619183
rradius 83.3425
rwrist -79.5509
rhand -4.10497 -6.52835
rfingers 7.12502
rthumb 21.6532 -35.3376
lclavicle -7.15625e-015 -3.18055e-015
lhumerus 36.4889 -30.6448 74.4713
lradius 100.374
lwrist 86.7177
lhand -38.7413 35.8147
lfingers 7.12502
lthumb -11.7542 65.4649
rfemur -21.0037 -2.94051 25.8138
rtibia 31.738
rfoot -13.9713 -16.0568
rtoes -5.48841
lfemur -22.09 -0.293371 -11.4948
ltibia 33.3318
lfoot -13.7703 12.3046
ltoes -20.5981
339
root -1.18592 17.7487 -1.97606 3.27585 0.468968 -1.75094
lowerback 13.5865 1.169 -1.45719
upperback 11.6408 1.46937 -2.40282
thorax 4.75209 0.74668 -1.8437
lowerneck 5.17677 -0.950476 -5.02987
upperneck -6.02891 -0.848135 12.2105
head -2.54988 -0.741873 4.56054
rclavicle 6.36111e-015 -6.36111e-015
rhumerus 60.0927 10.7316 -0.0520869
rradius 83.3698
rwrist -79.8637
rhand -3.77335 -6.57021
rfingers 7.12502
rthumb 21.9716 -35.3424
lclavicle 6.36111e-015 -6.36111e-015
lhumerus 35.7906 -30.4454 74.616
lradius 100.457
lwrist 87.0671
lhand -38.9498 35.7223
lfingers 7.12502
lthumb -11.9553 65.361
rfemur -21.0187 -3.23954 25.8269
rtibia 31.84
rfoot -14.1112 -16.3425
rtoes -5.29108
lfemur -22.187 -0.645484 -11.4972
ltibia 33.2618
lfoot -13.5714 12.1654
ltoes -21.2042
340
root -1.2068 17.7492 -1.97221 3.26135 1.06081 -1.65716
lowerback 13.6102 1.17882 -1.63755
upperback 11.5523 1.46079 -2.13172
thorax 4.62822 0.720596 -1.45692
lowerneck 5.48458 -1.0992 -5.29716
upperneck -6.02294 -1.0859 12.1162
head -2.5769 -0.859668 4.58743
rclavicle -2.38542e-015 -1.51076e-014
rhumerus 60.5836 11.0902 0.499412
rradius 83.4297
rwrist -80.2209
rhand -3.59455 -6.71086
rfingers 7.12502
rthumb 22.1433 -35.4628
lclavicle -2.38542e-015 -1.51076e-014
lhumerus 35.0013 -30.2285 74.747
lradius 100.627
lwrist 87.1029
lhand -38.9963 35.81
lfingers 7.12502
lthumb -12.0001 65.446
rfemur -21.041 -3.51899 25.7981
rtibia 31.9629
rfoot -14.239 -16.6405
rtoes -5.28215
lfemur -22.2856 -0.98652 -11.538
ltibia 33.1935
lfoot -13.3354 12.0097
ltoes -21.6792
